<?xml version="1.0" encoding="iso-8859-1"?>
<!-- Generator: Adobe Illustrator 19.0.0, SVG Export Plug-In . SVG Version: 6.00 Build 0)  -->
<svg version="1.1" id="Layer_1" xmlns="http://www.w3.org/2000/svg" xmlns:xlink="http://www.w3.org/1999/xlink" x="0px" y="0px"
	 viewBox="0 0 512 512" style="enable-background:new 0 0 512 512;" xml:space="preserve">
<path style="fill:#B3B3B3;" d="M434.44,110.654C401.18,45.876,334.359,0.003,255.98,0v101.329
	c55.478,0.004,100.593,43.671,100.594,99.151c0.001,54.805-45.49,102.048-100.594,102.051V512
	c70.645-73.617,151.953-154.542,187.529-251.428C461.297,212.121,457.979,156.5,434.44,110.654z"/>
<path style="fill:#979797;" d="M68.492,260.572C104.066,357.458,185.374,438.383,256.02,512V302.531
	c-55.104-0.003-100.595-47.247-100.594-102.051c0.001-55.478,45.116-99.147,100.594-99.151V0
	c-78.379,0.003-145.2,45.876-178.46,110.654C54.021,156.5,50.703,212.121,68.492,260.572z"/>
<circle style="fill:#F0F0F0;" cx="256" cy="198.773" r="160"/>
<g>
	<path style="fill:#D80027;" d="M249.043,198.772H416c0-14.442-1.924-28.431-5.511-41.739H249.043V198.772z"/>
	<path style="fill:#D80027;" d="M249.043,115.294h143.472c-9.794-15.983-22.317-30.11-36.918-41.739H249.043L249.043,115.294
		L249.043,115.294z"/>
	<path style="fill:#D80027;" d="M256,358.772c37.655,0,72.267-13.015,99.598-34.783H156.402
		C183.733,345.757,218.344,358.772,256,358.772z"/>
	<path style="fill:#D80027;" d="M119.484,282.251h273.033c7.863-12.83,13.961-26.855,17.972-41.739H101.511
		C105.523,255.395,111.62,269.421,119.484,282.251z"/>
</g>
<path style="fill:#0052B4;" d="M170.114,63.759h14.581l-13.563,9.853l5.181,15.943l-13.562-9.854l-13.562,9.854l4.476-13.774
	c-11.941,9.947-22.409,21.601-31.034,34.586h4.672l-8.633,6.272c-1.345,2.244-2.636,4.523-3.871,6.836l4.123,12.688l-7.691-5.588
	c-1.911,4.051-3.661,8.193-5.233,12.421l4.542,13.98h16.764l-13.562,9.854l5.18,15.942l-13.562-9.853l-8.124,5.903
	c-0.814,6.537-1.237,13.194-1.237,19.951h160c0-88.366,0-98.783,0-160C224.393,38.772,194.928,47.941,170.114,63.759z
	 M176.314,182.772l-13.562-9.853l-13.562,9.853l5.181-15.942l-13.563-9.854h16.764l5.181-15.942l5.18,15.942h16.764l-13.563,9.854
	L176.314,182.772z M171.133,120.221l5.181,15.942l-13.562-9.853l-13.562,9.853l5.181-15.942l-13.563-9.853h16.764l5.181-15.943
	l5.18,15.943h16.764L171.133,120.221z M233.706,182.772l-13.562-9.853l-13.562,9.853l5.181-15.942l-13.562-9.854h16.764l5.18-15.942
	l5.18,15.942h16.764l-13.562,9.854L233.706,182.772z M228.525,120.221l5.18,15.942l-13.562-9.853l-13.562,9.853l5.181-15.942
	l-13.562-9.853h16.764l5.18-15.943l5.18,15.943h16.764L228.525,120.221z M228.525,73.612l5.18,15.943l-13.562-9.854l-13.562,9.854
	l5.181-15.943L198.2,63.759h16.764l5.18-15.943l5.18,15.943h16.764L228.525,73.612z"/>
<path style="fill:#C7C7C7;" d="M255.928,21.706c-73.745,0-141.451,47.553-166.61,116.807
	c-25.343,69.773-3.142,149.835,53.974,197.07c57.236,47.338,140.369,53.625,203.978,15.148
	c63.626-38.489,97.228-114.681,82.271-187.573C414.888,91.77,355.517,35.12,283.472,23.842
	C274.361,22.416,265.141,21.706,255.928,21.706 M398.59,263.184c-30.241,67.01-105.732,104.802-177.479,88.399
	c-55.215-12.621-100.384-55.764-115.778-110.195c-15.749-55.658,1.328-116.804,43.417-156.425
	c45.534-42.867,114.172-54.571,171.321-28.799c68.228,30.767,105.971,108.144,87.651,180.845
	C405.459,245.986,402.37,254.739,398.59,263.184C396.502,267.811,400.132,259.739,398.59,263.184"/>
<g>
</g>
<g>
</g>
<g>
</g>
<g>
</g>
<g>
</g>
<g>
</g>
<g>
</g>
<g>
</g>
<g>
</g>
<g>
</g>
<g>
</g>
<g>
</g>
<g>
</g>
<g>
</g>
<g>
</g>
</svg>
